# xmcd
#
# Track frame offsets:
#        150
#        22607
#        65452
#        93690
#        105145
#        162580
#        184002
#        231482
#
# Disc length: 3745 seconds
#
# Revision: 0
# Processed by: cddbd v1.5.1PL0 Copyright (c) Steve Scherf et al.
# Submitted via: ExactAudioCopy v0.95a5
#
DISCID=5c0e9f08
DTITLE=Majestic Circus - Strange Trip On The Train
DYEAR=1900
DGENRE=Rock
TTITLE0=T-Birth
TTITLE1=Strange Trip On The Train
TTITLE2=5/8
TTITLE3=SOMA
TTITLE4=Throb
TTITLE5=Fantasy Building II
TTITLE6=Spring Wind
TTITLE7=Zungo-Funny Dance
EXTD=
EXTT0=
EXTT1=
EXTT2=
EXTT3=
EXTT4=
EXTT5=
EXTT6=
EXTT7=
PLAYORDER=
